Coordinates
version=1
nRows=32
nColumns=12
inDegrees=yes

Units are S.I. units (second, meters, Newtons, ...)
Angles are in degrees

endheader
time	SC_y	SC_z	SC_x	AC_y	AC_z	AC_x	GH_y	GH_z	GH_yy	EL_x	PS_y
       0.0              -31.39          33.43          7.304           42.3          4.834         -9.598         -12.37          74.88         -81.45          30.81          10.66
   0.04486              -31.39          33.43           7.31           42.3          4.833         -9.598         -12.34          74.88         -81.46          30.83          10.67
   0.08972              -31.39          33.43          7.316           42.3          4.831         -9.598         -12.32          74.87         -81.47          30.84          10.69
    0.1346              -31.39          33.43          7.322          42.31           4.83         -9.598         -12.29          74.87         -81.48          30.86          10.71
    0.1794              -31.39          33.43          7.328          42.31          4.829         -9.598         -12.26          74.87         -81.49          30.87          10.73
    0.2243              -31.39          33.43          7.335          42.31          4.827         -9.599         -12.23          74.87         -81.49          30.89          10.76
    0.2692              -31.39          33.43          7.343          42.31          4.826         -9.599         -12.19          74.87          -81.5          30.91          10.78
     0.314              -31.38          33.43          7.351          42.32          4.824         -9.599         -12.15          74.87         -81.52          30.93          10.81
    0.3589              -31.38          33.43          7.359          42.32          4.822         -9.599         -12.11          74.87         -81.53          30.95          10.84
    0.4037              -31.38          33.43          7.369          42.32           4.82         -9.599         -12.07          74.87         -81.54          30.98          10.87
    0.4486              -31.38          33.43          7.378          42.33          4.818           -9.6         -12.03          74.87         -81.55           31.0           10.9
    0.4935              -31.37          33.43          7.389          42.33          4.816           -9.6         -11.98          74.86         -81.57          31.03          10.93
    0.5383              -31.37          33.43            7.4          42.34          4.813           -9.6         -11.92          74.86         -81.58          31.06          10.97
    0.5832              -31.37          33.43          7.413          42.34          4.811           -9.6         -11.87          74.86          -81.6          31.09          11.01
     0.628              -31.37          33.43          7.426          42.35          4.808         -9.601          -11.8          74.86         -81.62          31.13          11.06
    0.6729              -31.36          33.43          7.441          42.35          4.805         -9.601         -11.74          74.86         -81.64          31.16           11.1
    0.7178              -31.36          33.43          7.456          42.36          4.801         -9.601         -11.66          74.85         -81.66           31.2          11.15
    0.7626              -31.35          33.43          7.474          42.37          4.798         -9.602         -11.58          74.85         -81.68          31.25          11.21
    0.8075              -31.35          33.43          7.492          42.37          4.794         -9.602          -11.5          74.85         -81.71           31.3          11.27
    0.8523              -31.34          33.43          7.513          42.38          4.789         -9.603          -11.4          74.84         -81.73          31.35          11.34
    0.8972              -31.34          33.43          7.535          42.39          4.785         -9.603          -11.3          74.84         -81.76          31.41          11.41
    0.9421              -31.33          33.43           7.56           42.4          4.779         -9.604         -11.18          74.84          -81.8          31.47          11.49
    0.9869              -31.33          33.43          7.588          42.41          4.774         -9.604         -11.05          74.83         -81.84          31.54          11.58
     1.032              -31.32          33.42          7.618          42.42          4.767         -9.605         -10.91          74.83         -81.88          31.62          11.68
     1.077              -31.31          33.42          7.652          42.44           4.76         -9.606         -10.76          74.82         -81.92           31.7          11.79
     1.121               -31.3          33.42          7.689          42.45          4.752         -9.607         -10.58          74.82         -81.97           31.8          11.92
     1.166              -31.29          33.42          7.731          42.47          4.743         -9.608         -10.39          74.81         -82.03          31.91          12.06
     1.211              -31.28          33.42          7.779          42.49          4.733         -9.609         -10.17           74.8         -82.09          32.03          12.21
     1.256              -31.27          33.42          7.832          42.51          4.721          -9.61         -9.918           74.8         -82.17          32.17          12.39
     1.301              -31.25          33.42          7.893          42.53          4.708         -9.611         -9.635          74.79         -82.25          32.32          12.59
     1.346              -31.23          33.42          7.963          42.56          4.694         -9.613         -9.313          74.78         -82.34           32.5          12.81
     1.391              -31.21          33.41          8.042          42.59          4.677         -9.615         -8.943          74.77         -82.45          32.71          13.08
